<svg id="svg" version="1.1" xmlns="http://www.w3.org/2000/svg" xmlns:xlink="http://www.w3.org/1999/xlink" width="400" height="400" viewBox="0, 0, 400,400"><g id="svgg"><path id="path0" d="M169.048 5.540 C 168.611 5.624,168.254 5.828,168.254 5.993 C 168.254 6.243,169.928 5.954,171.252 5.474 C 171.734 5.300,170.030 5.351,169.048 5.540 M202.990 34.893 C 197.408 35.787,194.198 37.476,192.672 40.324 C 192.037 41.509,192.036 43.477,192.670 43.901 C 192.724 43.938,193.245 44.285,193.827 44.674 C 195.850 46.025,201.179 47.326,208.670 48.297 C 214.054 48.995,222.067 50.092,224.339 50.442 C 225.600 50.636,227.822 50.966,229.277 51.174 C 262.585 55.950,298.721 70.987,332.451 94.108 C 342.819 101.214,345.132 102.700,345.254 102.334 C 345.624 101.222,338.270 93.463,330.167 86.419 C 328.717 85.159,327.314 83.926,327.050 83.681 C 326.786 83.435,325.989 82.801,325.278 82.272 C 324.567 81.742,323.907 81.214,323.810 81.097 C 322.784 79.864,302.858 65.961,302.116 65.961 C 301.992 65.961,301.199 65.485,300.353 64.903 C 299.507 64.321,298.721 63.845,298.606 63.845 C 298.491 63.845,297.806 63.460,297.082 62.989 C 293.721 60.801,273.132 50.441,272.147 50.441 C 272.052 50.441,270.977 49.984,269.758 49.425 C 268.538 48.867,266.820 48.165,265.941 47.867 C 265.061 47.568,263.793 47.078,263.123 46.778 C 256.662 43.882,241.024 39.181,230.159 36.867 C 221.599 35.045,208.148 34.067,202.990 34.893 M103.500 48.247 C 102.902 48.774,101.553 49.917,100.501 50.786 C 93.067 56.930,79.897 71.634,73.641 80.776 C 73.309 81.261,72.559 82.293,71.975 83.069 C 71.390 83.845,70.799 84.714,70.661 85.000 C 70.523 85.286,69.330 87.151,68.009 89.144 C 66.689 91.136,65.608 92.844,65.608 92.938 C 65.608 93.032,64.974 94.147,64.198 95.414 C 63.422 96.682,62.787 97.784,62.787 97.862 C 62.787 97.940,62.026 99.326,61.096 100.942 C 59.612 103.522,56.437 109.831,56.437 110.201 C 56.437 110.275,55.802 111.697,55.026 113.361 C 54.250 115.025,53.616 116.471,53.616 116.575 C 53.616 116.678,53.316 117.435,52.949 118.258 C 52.127 120.103,51.243 122.424,50.566 124.515 C 50.284 125.388,49.924 126.420,49.767 126.808 C 49.609 127.196,49.289 128.148,49.056 128.924 C 48.822 129.700,48.501 130.653,48.343 131.041 C 48.185 131.429,47.700 132.937,47.266 134.392 C 46.831 135.847,46.347 137.434,46.189 137.919 C 36.048 169.170,40.111 207.574,56.268 233.168 C 56.749 233.930,57.143 234.627,57.143 234.716 C 57.143 235.005,62.287 242.515,64.157 244.954 C 80.624 266.439,103.701 280.808,129.630 285.722 C 130.794 285.943,132.381 286.261,133.157 286.430 C 145.755 289.167,168.577 288.999,188.360 286.023 C 221.480 281.040,247.163 273.195,255.974 265.368 C 256.398 264.991,257.160 264.375,257.667 263.999 C 262.772 260.214,263.013 253.250,258.113 251.142 C 254.909 249.764,246.469 251.048,239.330 254.000 C 238.942 254.160,237.434 254.685,235.979 255.166 C 233.103 256.116,228.038 257.953,220.899 260.635 C 214.879 262.897,212.122 263.907,210.582 264.415 C 209.709 264.703,208.677 265.082,208.289 265.257 C 206.324 266.143,195.522 269.506,193.122 269.979 C 192.540 270.094,191.270 270.354,190.300 270.558 C 183.994 271.880,168.870 272.488,163.992 271.616 C 162.941 271.428,160.638 271.028,158.874 270.727 C 151.120 269.403,144.621 266.257,144.621 263.828 C 144.621 262.473,147.913 258.856,150.064 257.848 C 150.272 257.751,151.124 257.228,151.959 256.686 C 155.187 254.588,163.848 250.493,170.899 247.730 C 180.311 244.043,182.857 241.799,184.524 235.724 C 186.057 230.137,184.955 223.872,182.001 221.386 C 180.037 219.734,178.449 220.330,172.355 225.013 C 170.440 226.485,168.538 227.928,168.128 228.219 C 167.132 228.926,160.195 234.007,159.083 234.844 C 155.793 237.317,140.402 247.266,139.865 247.266 C 139.757 247.266,138.997 247.693,138.176 248.215 C 120.235 259.627,103.361 261.046,89.911 252.274 C 87.604 250.769,86.752 250.121,83.865 247.676 C 75.890 240.924,64.649 223.941,60.480 212.346 C 53.576 193.142,50.891 167.761,53.652 147.795 C 55.859 131.836,60.098 115.770,65.054 104.586 C 65.312 104.004,65.955 102.416,66.484 101.058 C 69.577 93.112,76.341 81.289,81.677 74.501 C 82.637 73.281,83.771 71.801,84.197 71.213 C 84.624 70.624,85.497 69.548,86.137 68.821 C 86.778 68.093,87.687 67.034,88.158 66.465 C 90.327 63.850,93.525 60.252,95.975 57.672 C 97.449 56.120,99.354 54.059,100.209 53.091 C 101.064 52.124,102.478 50.565,103.351 49.626 C 105.632 47.174,105.728 46.277,103.500 48.247 M166.843 60.002 C 163.085 60.426,159.544 61.022,157.496 61.574 C 156.526 61.835,155.335 62.149,154.850 62.271 C 148.297 63.920,141.330 70.039,143.400 72.326 C 144.754 73.822,153.896 74.134,164.021 73.030 C 179.512 71.341,197.826 71.963,215.697 74.785 C 216.861 74.968,219.877 75.445,222.399 75.844 C 224.921 76.244,228.175 76.814,229.630 77.113 C 231.085 77.411,233.069 77.793,234.039 77.960 C 235.526 78.216,239.023 78.948,247.443 80.765 C 248.219 80.932,250.362 81.383,252.205 81.766 C 254.048 82.150,259.762 83.441,264.903 84.635 C 275.744 87.153,277.413 87.443,277.189 86.769 C 277.036 86.310,272.215 83.683,269.136 82.381 C 268.263 82.011,266.914 81.434,266.138 81.098 C 230.908 65.844,190.717 57.305,166.843 60.002 M162.434 91.197 C 155.264 91.900,149.258 92.787,144.268 93.877 C 139.593 94.900,132.746 96.899,132.116 97.427 C 131.932 97.581,131.547 97.707,131.260 97.707 C 130.285 97.707,122.231 101.874,120.055 103.505 C 115.413 106.982,112.577 112.162,114.384 113.859 C 116.525 115.871,121.380 115.275,143.386 110.295 C 150.118 108.772,159.896 107.007,165.961 106.219 C 168.786 105.853,172.191 105.504,180.776 104.703 C 186.782 104.143,217.407 104.137,226.279 104.693 C 247.440 106.022,261.371 107.017,269.229 107.762 C 277.782 108.573,283.075 108.371,280.159 107.344 C 279.819 107.225,278.907 106.848,278.131 106.508 C 276.832 105.938,275.682 105.578,269.136 103.688 C 266.133 102.822,256.316 100.456,250.970 99.310 C 248.642 98.811,246.102 98.250,245.326 98.064 C 236.069 95.837,216.796 92.881,202.469 91.492 C 194.417 90.711,169.275 90.526,162.434 91.197 M226.984 116.590 C 218.970 117.156,209.730 118.250,204.938 119.200 C 203.249 119.535,200.900 119.967,197.178 120.628 C 195.917 120.852,194.211 121.183,193.386 121.364 C 191.623 121.751,189.631 122.175,186.949 122.734 C 185.882 122.957,184.334 123.290,183.510 123.474 C 182.685 123.659,181.336 123.960,180.511 124.143 C 177.502 124.814,169.813 126.695,168.783 127.013 C 145.605 134.168,134.256 142.257,136.569 149.976 C 137.863 154.294,143.145 155.081,152.489 152.348 C 157.630 150.845,171.070 146.192,174.956 144.570 C 175.441 144.368,177.981 143.422,180.600 142.469 C 183.219 141.516,186.155 140.421,187.125 140.036 C 208.474 131.568,229.956 129.852,246.129 135.322 C 254.928 138.299,255.375 141.279,247.795 146.431 C 244.862 148.424,234.192 154.145,233.406 154.145 C 233.279 154.145,232.135 154.621,230.864 155.203 C 229.593 155.785,228.351 156.261,228.104 156.261 C 227.857 156.261,227.504 156.396,227.319 156.561 C 227.135 156.726,225.873 157.294,224.515 157.823 C 218.799 160.048,216.660 161.711,214.847 165.344 C 211.770 171.508,212.147 179.304,215.692 182.804 C 217.589 184.677,219.297 184.014,226.279 178.695 C 251.290 159.640,270.668 148.407,281.809 146.508 C 301.937 143.077,319.536 155.541,333.680 183.245 C 338.641 192.964,341.493 202.198,343.538 215.168 C 346.905 236.518,346.296 253.561,341.394 275.132 C 339.933 281.562,333.207 301.477,331.923 303.175 C 331.776 303.369,331.539 303.924,331.396 304.409 C 331.000 305.752,325.679 316.501,324.685 317.966 C 324.203 318.675,323.810 319.332,323.810 319.426 C 323.810 319.617,319.691 325.749,318.227 327.736 C 315.993 330.770,312.666 335.028,311.495 336.351 C 310.799 337.138,309.411 338.725,308.411 339.878 C 307.411 341.032,305.268 343.446,303.649 345.243 C 302.030 347.040,299.057 350.339,297.043 352.574 C 292.505 357.611,292.634 358.023,297.408 353.738 C 303.816 347.986,310.151 341.416,315.721 334.742 C 319.771 329.890,320.640 328.763,324.602 323.228 C 326.700 320.297,329.101 316.668,329.101 316.427 C 329.101 316.280,329.418 315.871,329.806 315.520 C 330.194 315.169,330.511 314.756,330.511 314.601 C 330.511 314.447,330.971 313.639,331.532 312.804 C 332.093 311.970,332.897 310.653,333.319 309.877 C 333.740 309.101,334.414 307.910,334.817 307.231 C 336.368 304.612,339.704 298.045,341.625 293.827 C 344.464 287.593,344.430 287.674,345.849 283.774 C 346.555 281.834,347.294 279.855,347.491 279.376 C 359.235 250.895,360.278 211.299,349.886 188.452 C 349.512 187.629,349.206 186.826,349.206 186.666 C 349.206 186.506,348.810 185.553,348.325 184.547 C 347.840 183.542,347.443 182.593,347.443 182.438 C 347.443 181.446,341.377 170.439,337.974 165.256 C 333.010 157.696,323.204 146.542,318.059 142.606 C 317.245 141.983,316.102 141.052,315.520 140.537 C 313.185 138.472,308.902 135.466,302.998 131.749 C 284.412 120.046,256.583 114.496,226.984 116.590 M273.545 290.134 C 268.247 291.102,267.644 291.229,257.496 293.495 C 244.240 296.455,237.730 297.525,223.457 299.090 C 212.696 300.269,186.100 300.474,171.076 299.492 C 168.069 299.295,163.069 298.973,159.965 298.776 C 148.246 298.031,137.382 297.205,131.746 296.630 C 125.121 295.954,116.999 295.793,117.178 296.341 C 117.856 298.419,141.733 304.700,165.785 309.127 C 217.352 318.619,265.258 314.274,280.370 298.734 C 287.094 291.820,284.210 288.186,273.545 290.134 M52.205 301.804 C 52.205 302.735,55.800 306.884,60.630 311.527 C 77.268 327.524,96.668 340.596,120.032 351.554 C 123.484 353.173,126.377 354.497,126.461 354.497 C 126.545 354.497,127.610 354.953,128.827 355.510 C 160.279 369.904,198.930 374.469,204.783 364.482 C 207.697 359.510,203.312 357.889,177.778 354.498 C 174.771 354.098,171.437 353.620,170.370 353.435 C 169.303 353.249,166.843 352.845,164.903 352.536 C 159.125 351.614,146.457 348.771,141.446 347.270 C 137.265 346.017,129.219 343.416,128.748 343.164 C 128.457 343.008,127.147 342.479,125.838 341.987 C 121.372 340.311,118.879 339.310,116.670 338.308 C 113.395 336.822,110.778 335.658,108.995 334.895 C 104.929 333.154,90.909 325.945,87.384 323.783 C 86.460 323.215,85.610 322.751,85.496 322.751 C 85.381 322.751,84.582 322.275,83.720 321.693 C 82.857 321.111,82.064 320.635,81.956 320.635 C 81.848 320.635,81.055 320.159,80.192 319.577 C 79.330 318.995,78.546 318.519,78.451 318.519 C 78.356 318.519,77.848 318.218,77.323 317.851 C 76.033 316.951,69.113 312.435,68.347 311.993 C 66.954 311.191,60.632 306.729,60.270 306.292 C 60.055 306.032,59.684 305.820,59.447 305.820 C 59.210 305.820,58.729 305.503,58.377 305.115 C 58.026 304.727,57.578 304.409,57.381 304.409 C 57.183 304.409,56.731 304.145,56.375 303.823 C 55.731 303.241,55.424 303.043,53.309 301.843 C 52.295 301.267,52.205 301.264,52.205 301.804 M120.988 317.932 C 125.874 322.937,167.284 337.454,188.536 341.613 C 191.058 342.106,193.915 342.665,194.885 342.854 C 209.911 345.787,231.309 345.711,241.745 342.687 C 251.538 339.849,257.709 333.704,253.086 331.393 C 251.375 330.538,244.957 330.444,236.684 331.154 C 220.193 332.570,204.653 332.470,191.887 330.866 C 190.432 330.683,187.813 330.354,186.067 330.134 C 177.818 329.097,159.213 325.629,147.443 322.935 C 144.630 322.291,140.741 321.413,138.801 320.984 C 136.861 320.555,132.854 319.595,129.898 318.850 C 126.941 318.105,123.528 317.391,122.314 317.262 L 120.106 317.028 120.988 317.932 " stroke="none" fill="#040404" fill-rule="evenodd"></path><path id="path1" d="M163.845 6.228 C 111.875 15.564,63.592 45.878,36.676 86.067 C 35.441 87.910,34.299 89.576,34.138 89.770 C 33.631 90.380,29.277 97.152,29.036 97.707 C 28.909 97.998,28.356 98.900,27.807 99.711 C 27.257 100.522,26.808 101.279,26.808 101.393 C 26.808 101.507,26.157 102.669,25.361 103.975 C 21.738 109.922,10.646 133.946,10.096 137.037 C 10.061 137.231,9.927 137.558,9.798 137.765 C 9.669 137.971,8.830 140.669,7.933 143.761 C -25.546 259.189,48.297 377.017,166.843 397.329 C 182.373 399.990,202.719 400.892,210.703 399.274 C 227.069 395.956,243.603 389.996,252.557 384.186 C 263.874 376.844,276.151 364.582,281.514 355.266 C 287.943 344.097,293.822 329.811,296.128 319.753 C 300.076 302.534,295.738 274.322,286.203 255.203 C 278.722 240.201,256.645 218.339,244.092 213.502 C 234.253 209.711,231.877 208.918,225.926 207.435 C 215.770 204.905,204.291 203.300,190.376 202.466 C 171.758 201.350,151.007 192.817,133.862 179.227 C 100.136 152.494,89.433 98.467,109.782 57.672 C 116.180 44.845,125.511 33.711,138.628 23.252 C 145.266 17.959,157.019 11.142,165.344 7.757 C 169.918 5.897,169.284 5.250,163.845 6.228 M208.377 34.470 C 209.008 34.549,210.040 34.549,210.670 34.470 C 211.301 34.392,210.785 34.328,209.524 34.328 C 208.263 34.328,207.747 34.392,208.377 34.470 M105.056 47.573 C 104.991 47.741,103.671 49.266,102.123 50.962 C 100.575 52.657,99.079 54.370,98.800 54.769 C 98.521 55.167,97.163 56.618,95.782 57.994 C 94.401 59.369,92.246 61.684,90.993 63.139 C 89.741 64.594,88.358 66.180,87.920 66.663 C 87.483 67.146,87.125 67.662,87.125 67.810 C 87.125 67.958,86.530 68.703,85.802 69.466 C 84.059 71.295,82.404 73.338,81.796 74.411 C 81.526 74.887,81.037 75.522,80.710 75.822 C 78.086 78.227,69.312 93.792,66.484 101.058 C 65.955 102.416,65.312 104.004,65.054 104.586 C 60.098 115.770,55.859 131.836,53.652 147.795 C 50.891 167.761,53.576 193.142,60.480 212.346 C 61.930 216.377,69.813 231.304,70.257 230.860 C 70.352 230.765,70.429 230.896,70.429 231.150 C 70.429 231.840,74.837 238.213,76.575 240.035 C 76.945 240.423,78.023 241.693,78.970 242.857 C 80.503 244.742,84.669 248.677,85.130 248.677 C 85.228 248.677,85.794 249.164,86.389 249.759 C 86.984 250.353,87.623 250.746,87.809 250.631 C 87.996 250.515,88.316 250.735,88.521 251.119 C 88.727 251.502,89.278 252.023,89.746 252.275 C 90.215 252.527,91.450 253.216,92.490 253.805 C 94.774 255.099,97.611 256.147,101.470 257.121 C 104.776 257.956,115.697 258.214,115.697 257.458 C 115.697 257.243,115.946 257.163,116.251 257.280 C 117.127 257.616,124.448 255.783,124.004 255.339 C 123.914 255.248,124.188 255.148,124.613 255.116 C 125.038 255.084,125.442 254.891,125.510 254.687 C 125.578 254.483,125.766 254.398,125.928 254.498 C 126.089 254.598,126.437 254.480,126.700 254.236 C 126.962 253.992,127.412 253.740,127.698 253.677 C 127.984 253.614,128.272 253.415,128.337 253.234 C 128.402 253.053,128.588 252.987,128.749 253.087 C 128.911 253.187,129.295 253.018,129.601 252.712 C 129.908 252.405,130.159 252.241,130.159 252.348 C 130.159 252.580,136.200 249.456,138.232 248.173 C 139.022 247.674,139.757 247.266,139.865 247.266 C 140.402 247.266,155.793 237.317,159.083 234.844 C 160.195 234.007,167.132 228.926,168.128 228.219 C 168.538 227.928,170.440 226.485,172.355 225.013 C 177.085 221.377,179.447 220.091,180.599 220.523 C 184.472 221.975,186.327 229.156,184.524 235.724 C 182.857 241.799,180.311 244.043,170.899 247.730 C 163.848 250.493,155.187 254.588,151.959 256.686 C 151.124 257.228,150.272 257.751,150.064 257.848 C 149.045 258.326,146.038 260.979,145.373 261.988 C 144.396 263.471,144.427 264.143,145.530 265.432 C 146.028 266.014,146.333 266.252,146.208 265.961 C 146.083 265.670,146.349 265.856,146.800 266.375 C 147.250 266.893,148.333 267.582,149.206 267.907 C 150.079 268.231,151.111 268.633,151.499 268.802 C 152.947 269.429,157.230 270.518,159.788 270.910 C 161.243 271.133,163.196 271.459,164.127 271.636 C 166.755 272.135,180.632 272.005,184.656 271.443 C 190.795 270.586,191.534 270.456,191.535 270.234 C 191.535 270.115,192.051 269.985,192.681 269.945 C 193.923 269.866,199.360 268.427,199.647 268.101 C 199.744 267.991,200.220 267.845,200.705 267.777 C 201.190 267.708,201.667 267.549,201.764 267.424 C 201.861 267.298,202.337 267.140,202.822 267.071 C 203.307 267.003,203.783 266.844,203.880 266.718 C 203.977 266.593,204.453 266.434,204.938 266.366 C 205.423 266.297,205.899 266.139,205.996 266.013 C 206.093 265.888,206.570 265.731,207.055 265.666 C 207.540 265.601,208.087 265.402,208.272 265.225 C 208.456 265.048,208.892 264.903,209.242 264.903 C 209.591 264.903,209.877 264.771,209.877 264.609 C 209.877 264.447,210.111 264.315,210.399 264.315 C 211.180 264.315,213.757 263.415,213.757 263.142 C 213.757 263.011,213.992 262.904,214.279 262.904 C 215.035 262.904,217.637 262.008,217.637 261.747 C 217.637 261.625,217.980 261.500,218.399 261.468 C 218.818 261.437,219.254 261.284,219.369 261.129 C 219.483 260.974,219.974 260.791,220.459 260.722 C 220.944 260.654,221.437 260.442,221.556 260.251 C 221.675 260.060,221.834 259.957,221.909 260.020 C 222.118 260.197,225.044 259.177,225.044 258.927 C 225.044 258.806,225.472 258.672,225.994 258.629 C 226.517 258.586,227.033 258.432,227.141 258.288 C 227.249 258.143,227.654 257.969,228.042 257.901 C 228.430 257.833,228.845 257.621,228.964 257.430 C 229.082 257.239,229.281 257.096,229.405 257.113 C 230.301 257.233,231.051 257.092,230.891 256.834 C 230.787 256.664,231.113 256.526,231.616 256.526 C 232.120 256.526,232.633 256.387,232.756 256.217 C 232.880 256.047,233.139 255.892,233.333 255.873 C 234.224 255.784,237.761 254.576,237.930 254.304 C 238.033 254.136,238.335 254.082,238.600 254.184 C 238.865 254.286,239.187 254.200,239.315 253.992 C 239.443 253.785,239.905 253.616,240.341 253.616 C 240.778 253.616,241.436 253.395,241.805 253.126 C 242.173 252.856,242.680 252.714,242.931 252.811 C 243.181 252.907,243.386 252.844,243.386 252.672 C 243.386 252.500,243.823 252.322,244.356 252.278 C 244.890 252.234,245.380 252.040,245.445 251.847 C 245.510 251.653,245.688 251.572,245.840 251.666 C 245.992 251.760,247.050 251.592,248.191 251.292 C 253.075 250.007,261.052 250.792,260.581 252.511 C 260.548 252.633,260.743 253.131,261.016 253.616 C 262.641 256.506,261.028 261.507,257.667 263.999 C 257.160 264.375,256.398 264.991,255.974 265.368 C 247.163 273.195,221.480 281.040,188.360 286.023 C 168.577 288.999,145.755 289.167,133.157 286.430 C 132.381 286.261,130.794 285.943,129.630 285.722 C 103.701 280.808,80.624 266.439,64.157 244.954 C 62.287 242.515,57.143 235.005,57.143 234.716 C 57.143 234.627,56.749 233.930,56.268 233.168 C 40.111 207.574,36.048 169.170,46.189 137.919 C 46.347 137.434,46.831 135.847,47.266 134.392 C 47.700 132.937,48.185 131.429,48.343 131.041 C 48.501 130.653,48.822 129.700,49.056 128.924 C 49.289 128.148,49.609 127.196,49.767 126.808 C 49.924 126.420,50.284 125.388,50.566 124.515 C 51.243 122.424,52.127 120.103,52.949 118.258 C 53.316 117.435,53.616 116.678,53.616 116.575 C 53.616 116.471,54.250 115.025,55.026 113.361 C 55.802 111.697,56.437 110.275,56.437 110.201 C 56.437 109.831,59.612 103.522,61.096 100.942 C 62.026 99.326,62.787 97.940,62.787 97.862 C 62.787 97.784,63.422 96.682,64.198 95.414 C 64.974 94.147,65.608 93.024,65.608 92.920 C 65.608 92.816,66.249 91.787,67.033 90.633 C 67.816 89.480,68.332 88.534,68.179 88.531 C 68.026 88.528,68.090 88.405,68.321 88.258 C 68.823 87.939,70.547 85.450,70.547 85.045 C 70.547 84.888,70.944 84.331,71.429 83.808 C 71.914 83.284,72.310 82.643,72.310 82.383 C 72.310 82.123,72.540 81.822,72.821 81.714 C 73.102 81.606,73.578 81.042,73.878 80.460 C 74.179 79.879,74.819 78.978,75.301 78.458 C 75.783 77.938,76.091 77.374,75.987 77.204 C 75.882 77.035,75.963 76.896,76.167 76.896 C 76.372 76.896,77.018 76.221,77.604 75.397 C 78.190 74.572,79.183 73.282,79.811 72.530 C 80.439 71.777,80.873 71.141,80.776 71.116 C 80.679 71.091,81.235 70.434,82.011 69.657 C 83.864 67.802,85.424 65.961,85.143 65.961 C 85.019 65.961,88.337 62.549,92.515 58.377 C 96.694 54.206,100.295 50.794,100.518 50.794 C 100.741 50.794,100.825 50.635,100.705 50.441 C 100.586 50.247,100.695 50.088,100.949 50.087 C 101.203 50.087,102.125 49.459,102.998 48.691 C 104.525 47.350,105.304 46.926,105.056 47.573 M180.351 72.220 C 181.864 72.286,184.245 72.286,185.642 72.219 C 187.040 72.152,185.802 72.098,182.892 72.099 C 179.982 72.099,178.839 72.154,180.351 72.220 M177.145 90.561 C 178.446 90.629,180.668 90.629,182.083 90.562 C 183.498 90.495,182.434 90.440,179.718 90.439 C 177.002 90.438,175.844 90.493,177.145 90.561 M193.739 90.896 C 194.078 90.984,194.634 90.984,194.974 90.896 C 195.313 90.807,195.035 90.734,194.356 90.734 C 193.677 90.734,193.399 90.807,193.739 90.896 M337.037 92.769 C 337.795 93.545,338.494 94.180,338.591 94.180 C 338.688 94.180,338.148 93.545,337.390 92.769 C 336.632 91.993,335.933 91.358,335.836 91.358 C 335.739 91.358,336.279 91.993,337.037 92.769 M193.563 104.305 C 193.999 104.389,194.713 104.389,195.150 104.305 C 195.586 104.221,195.229 104.153,194.356 104.153 C 193.483 104.153,193.126 104.221,193.563 104.305 M209.788 104.312 C 210.419 104.390,211.451 104.390,212.081 104.312 C 212.712 104.233,212.196 104.169,210.935 104.169 C 209.674 104.169,209.158 104.233,209.788 104.312 M183.333 104.658 C 183.770 104.742,184.484 104.742,184.921 104.658 C 185.357 104.574,185.000 104.505,184.127 104.505 C 183.254 104.505,182.897 104.574,183.333 104.658 M221.605 104.652 C 221.944 104.741,222.500 104.741,222.840 104.652 C 223.179 104.564,222.901 104.491,222.222 104.491 C 221.543 104.491,221.265 104.564,221.605 104.652 M231.309 116.299 C 231.748 116.383,232.383 116.380,232.720 116.292 C 233.057 116.203,232.698 116.134,231.922 116.138 C 231.146 116.142,230.870 116.214,231.309 116.299 M247.535 116.299 C 247.974 116.383,248.609 116.380,248.946 116.292 C 249.283 116.203,248.924 116.134,248.148 116.138 C 247.372 116.142,247.096 116.214,247.535 116.299 M282.994 290.396 C 286.433 292.645,280.629 300.380,272.367 304.559 C 250.929 315.402,209.516 317.177,165.785 309.127 C 141.733 304.700,117.856 298.419,117.178 296.341 C 116.999 295.793,125.128 295.955,131.746 296.631 C 137.220 297.190,149.787 298.148,159.612 298.756 C 162.328 298.924,167.884 299.272,171.958 299.530 C 181.881 300.159,211.010 300.153,218.342 299.520 C 221.349 299.261,224.881 298.967,226.190 298.867 C 227.500 298.767,228.571 298.571,228.571 298.432 C 228.571 298.292,229.257 298.178,230.094 298.178 C 232.088 298.178,239.153 297.277,239.154 297.023 C 239.155 296.914,239.671 296.815,240.301 296.801 C 241.998 296.766,246.914 295.841,246.914 295.558 C 246.914 295.423,247.271 295.330,247.707 295.350 C 248.885 295.406,253.968 294.431,253.968 294.149 C 253.968 294.015,254.167 293.927,254.409 293.954 C 255.307 294.053,260.317 292.971,260.317 292.678 C 260.317 292.511,260.438 292.449,260.584 292.540 C 260.731 292.630,262.279 292.396,264.024 292.020 C 268.347 291.086,270.451 290.676,272.222 290.423 C 273.047 290.305,273.721 290.105,273.721 289.979 C 273.721 289.396,282.038 289.771,282.994 290.396 M54.312 302.281 C 54.652 302.731,55.103 302.992,55.315 302.861 C 55.527 302.730,55.964 303.025,56.286 303.516 C 56.608 304.007,57.169 304.409,57.533 304.409 C 57.897 304.409,58.393 304.727,58.636 305.115 C 58.878 305.503,59.236 305.820,59.432 305.821 C 59.628 305.821,60.235 306.205,60.781 306.674 C 61.752 307.510,67.137 311.295,68.348 311.993 C 69.116 312.437,76.039 316.955,77.323 317.851 C 77.848 318.218,78.356 318.519,78.451 318.519 C 78.546 318.519,79.330 318.995,80.192 319.577 C 81.055 320.159,81.883 320.635,82.034 320.635 C 82.185 320.635,82.558 320.853,82.865 321.119 C 83.720 321.862,87.478 323.864,87.478 323.576 C 87.478 323.436,87.676 323.577,87.919 323.888 C 88.161 324.200,89.550 325.083,91.005 325.850 C 92.460 326.618,94.563 327.741,95.679 328.345 C 96.795 328.950,97.710 329.328,97.713 329.184 C 97.716 329.041,97.838 329.113,97.984 329.343 C 98.335 329.894,108.286 334.733,109.083 334.739 C 109.422 334.742,109.700 334.871,109.700 335.026 C 109.700 335.328,112.169 336.346,112.610 336.227 C 112.756 336.187,112.875 336.289,112.875 336.451 C 112.875 336.614,113.549 336.965,114.374 337.230 C 115.198 337.496,115.952 337.805,116.049 337.918 C 116.375 338.296,120.534 340.033,121.649 340.256 C 122.255 340.377,122.751 340.615,122.751 340.785 C 122.751 340.955,123.035 341.093,123.382 341.093 C 123.729 341.093,124.636 341.411,125.397 341.799 C 126.158 342.187,127.029 342.504,127.333 342.504 C 127.637 342.504,128.238 342.752,128.670 343.054 C 129.101 343.356,129.599 343.514,129.776 343.404 C 129.954 343.295,130.152 343.339,130.217 343.501 C 130.321 343.763,137.192 346.153,138.095 346.242 C 138.289 346.261,138.686 346.365,138.977 346.473 C 142.884 347.928,157.627 351.376,164.903 352.536 C 166.843 352.845,169.303 353.249,170.370 353.435 C 171.437 353.620,174.771 354.098,177.778 354.498 C 189.799 356.094,197.303 357.347,200.353 358.268 C 201.420 358.590,202.412 358.826,202.557 358.792 C 202.703 358.758,202.822 358.870,202.822 359.040 C 202.822 359.211,203.296 359.546,203.876 359.787 C 204.455 360.027,204.843 360.363,204.737 360.535 C 204.631 360.706,204.699 360.847,204.889 360.847 C 206.642 360.847,204.887 365.390,202.547 366.910 C 192.077 373.716,156.633 368.235,128.827 355.510 C 127.610 354.953,126.545 354.497,126.461 354.497 C 124.119 354.497,100.012 341.454,89.630 334.570 C 75.765 325.375,62.099 314.009,55.018 305.782 C 53.893 304.475,52.854 303.512,52.709 303.643 C 52.563 303.773,52.552 303.693,52.683 303.464 C 52.814 303.234,52.760 302.947,52.563 302.825 C 52.366 302.704,52.205 302.322,52.205 301.978 C 52.205 301.079,53.552 301.273,54.312 302.281 M122.810 317.080 C 122.875 317.259,123.642 317.474,124.515 317.558 C 125.388 317.642,126.548 317.893,127.093 318.114 C 128.020 318.491,129.885 318.873,131.305 318.977 C 131.645 319.002,131.922 319.122,131.922 319.243 C 131.922 319.365,132.835 319.662,133.951 319.904 C 136.932 320.549,141.295 321.529,147.266 322.895 C 159.229 325.632,177.767 329.090,186.067 330.134 C 187.813 330.354,190.432 330.683,191.887 330.866 C 204.653 332.470,220.193 332.570,236.684 331.154 C 250.641 329.956,255.177 330.717,254.533 334.147 C 252.766 343.567,221.739 348.096,194.885 342.854 C 193.915 342.665,191.058 342.106,188.536 341.613 C 165.093 337.026,116.803 319.534,120.719 317.048 C 121.328 316.662,122.666 316.682,122.810 317.080 M299.978 351.411 L 298.942 352.557 300.088 351.521 C 300.719 350.952,301.235 350.436,301.235 350.375 C 301.235 350.102,300.944 350.342,299.978 351.411 " stroke="none" fill="#94bc4b" fill-rule="evenodd"></path><path id="path2" d="M182.540 3.913 C 169.806 4.947,157.516 9.960,143.034 20.028 C 130.775 28.549,120.263 39.681,112.983 51.852 C 88.627 92.571,98.198 150.958,133.862 179.227 C 151.007 192.817,171.758 201.350,190.376 202.466 C 204.291 203.300,215.770 204.905,225.926 207.435 C 231.877 208.918,234.253 209.711,244.092 213.502 C 256.645 218.339,278.722 240.201,286.203 255.203 C 295.738 274.322,300.076 302.534,296.128 319.753 C 293.822 329.811,287.943 344.097,281.514 355.266 C 276.151 364.582,263.874 376.844,252.557 384.186 C 243.725 389.917,228.174 395.572,211.464 399.129 C 207.074 400.064,207.491 400.150,213.970 399.647 C 334.339 390.304,417.399 278.463,392.034 159.881 C 371.447 63.637,280.533 -4.048,182.540 3.913 M219.929 35.143 C 238.154 37.283,261.199 44.672,282.892 55.334 C 285.705 56.716,289.118 58.454,290.476 59.195 C 295.449 61.909,298.044 63.379,300.366 64.797 C 300.747 65.029,302.169 65.886,303.527 66.702 C 311.224 71.322,322.108 79.300,330.159 86.224 C 334.771 90.189,344.621 100.030,344.621 100.672 C 344.621 100.934,344.866 101.351,345.165 101.600 C 346.890 103.032,344.748 102.559,342.439 100.998 C 325.031 89.233,318.387 84.983,309.171 79.714 C 286.672 66.852,261.694 57.359,238.801 52.968 C 230.551 51.385,226.767 50.790,213.757 49.027 C 195.613 46.568,191.887 45.338,191.887 41.809 C 191.887 35.997,203.560 33.222,219.929 35.143 M190.300 60.138 C 203.106 61.407,220.959 65.064,232.628 68.810 C 238.755 70.776,245.955 73.189,248.677 74.187 C 256.481 77.048,258.082 77.654,259.136 78.144 C 259.748 78.427,260.382 78.665,260.547 78.672 C 260.712 78.678,261.481 78.990,262.257 79.365 C 263.034 79.740,263.798 80.052,263.956 80.059 C 264.114 80.065,265.066 80.446,266.072 80.906 C 267.078 81.365,268.774 82.115,269.841 82.571 C 277.156 85.701,279.688 88.413,273.762 86.772 C 272.076 86.305,255.836 82.575,252.910 81.983 C 251.649 81.728,248.713 81.107,246.384 80.602 C 233.680 77.847,219.618 75.291,210.582 74.093 C 206.920 73.608,202.132 73.120,196.203 72.629 C 190.729 72.176,169.002 72.427,164.550 72.995 C 159.640 73.622,146.334 73.839,144.805 73.318 C 141.785 72.288,142.389 69.673,146.380 66.497 C 150.656 63.095,156.246 61.221,165.785 59.994 C 169.739 59.485,184.594 59.572,190.300 60.138 M34.950 87.919 C 28.794 96.607,22.103 108.157,17.603 117.860 C 15.141 123.171,11.169 132.979,11.391 133.201 C 11.455 133.266,12.446 130.980,13.593 128.123 C 15.813 122.591,22.961 107.927,25.364 103.975 C 26.158 102.669,26.808 101.507,26.808 101.393 C 26.808 101.279,27.257 100.522,27.807 99.711 C 28.356 98.900,28.909 97.998,29.036 97.707 C 29.276 97.155,33.627 90.386,34.137 89.771 C 34.882 88.872,38.097 83.951,37.939 83.951 C 37.841 83.951,36.496 85.736,34.950 87.919 M197.707 91.037 C 201.910 91.372,208.130 91.991,215.344 92.792 C 220.438 93.357,236.107 95.966,241.623 97.167 C 243.078 97.484,245.776 98.045,247.619 98.414 C 252.563 99.404,263.558 102.052,270.370 103.892 C 275.623 105.312,280.776 107.346,280.776 108.001 C 280.776 108.434,273.183 108.221,266.314 107.596 C 260.688 107.084,254.010 106.562,247.972 106.163 C 245.159 105.977,240.556 105.666,237.743 105.473 C 198.107 102.743,169.508 104.307,141.724 110.723 C 120.322 115.666,114.504 116.155,113.731 113.074 C 112.820 109.446,118.386 103.555,126.279 99.794 C 130.534 97.766,130.522 97.771,132.275 97.147 C 148.271 91.457,173.480 89.102,197.707 91.037 M253.862 116.592 C 271.896 118.152,289.597 123.504,302.034 131.159 C 303.347 131.967,304.494 132.628,304.582 132.628 C 304.801 132.628,311.098 136.939,313.005 138.395 C 328.057 149.884,341.995 168.054,348.493 184.656 C 348.949 185.820,349.430 186.931,349.563 187.125 C 349.927 187.657,353.038 197.214,353.822 200.206 C 358.837 219.353,358.455 241.165,352.725 262.787 C 352.134 265.018,351.580 267.150,351.494 267.525 C 351.055 269.448,346.748 281.892,345.138 285.891 C 342.814 291.664,338.267 301.442,336.853 303.704 C 336.508 304.256,332.792 310.768,332.123 311.993 C 331.743 312.688,328.772 317.319,327.823 318.695 C 327.555 319.083,326.582 320.490,325.661 321.822 C 324.740 323.154,323.748 324.595,323.457 325.025 C 322.702 326.140,318.948 330.972,317.284 332.972 C 312.365 338.883,309.613 341.905,304.589 346.914 C 293.935 357.535,289.499 360.646,297.585 351.825 C 300.077 349.107,303.228 345.620,304.586 344.076 C 305.944 342.533,307.134 341.190,307.231 341.093 C 308.995 339.334,316.742 329.795,318.548 327.160 C 319.212 326.190,320.177 324.841,320.690 324.162 C 321.204 323.483,321.917 322.427,322.276 321.816 C 322.634 321.204,323.662 319.458,324.560 317.936 C 326.681 314.340,328.353 311.140,329.600 308.289 C 330.151 307.028,330.884 305.362,331.229 304.586 C 331.574 303.810,332.600 301.270,333.509 298.942 C 334.417 296.614,335.304 294.392,335.479 294.004 C 337.957 288.508,342.134 272.783,343.546 263.633 C 345.319 252.142,345.438 250.761,345.465 241.270 C 345.573 204.519,333.267 171.968,313.073 155.588 C 297.043 142.586,282.773 142.689,259.854 155.971 C 257.490 157.341,255.079 158.737,254.497 159.072 C 250.188 161.557,237.214 170.478,230.759 175.396 C 221.992 182.074,220.934 182.841,219.853 183.296 C 211.000 187.025,210.174 165.229,218.982 160.337 C 220.943 159.248,224.233 157.767,228.042 156.259 C 229.594 155.644,231.702 154.758,232.727 154.290 C 233.751 153.822,234.679 153.439,234.789 153.439 C 235.212 153.439,241.198 150.415,243.304 149.137 C 244.520 148.399,245.585 147.795,245.670 147.795 C 246.410 147.795,251.660 143.535,252.511 142.245 C 256.504 136.185,236.141 130.847,215.873 132.640 C 206.342 133.483,200.522 135.141,178.836 143.192 C 145.749 155.475,139.915 156.559,136.963 150.975 C 133.477 144.383,142.537 136.053,159.965 129.831 C 164.711 128.136,164.753 128.122,166.843 127.501 C 170.858 126.308,174.082 125.490,179.894 124.188 C 187.243 122.543,190.009 121.940,191.358 121.692 C 192.134 121.548,194.039 121.172,195.591 120.855 C 197.143 120.538,199.365 120.109,200.529 119.901 C 201.693 119.693,203.360 119.380,204.233 119.206 C 217.631 116.524,239.659 115.364,253.862 116.592 " stroke="none" fill="#fbfbfb" fill-rule="evenodd"></path></g></svg>